<?xml version="1.0" encoding="UTF-8" standalone="no"?>
<svg width="20px" height="20px" viewBox="0 0 20 20" version="1.1" xmlns="http://www.w3.org/2000/svg" xmlns:xlink="http://www.w3.org/1999/xlink" xmlns:sketch="http://www.bohemiancoding.com/sketch/ns">
    <!-- Generator: Sketch 3.1 (8751) - http://www.bohemiancoding.com/sketch -->
    <title>communication</title>
    <desc>Created with Sketch.</desc>
    <defs></defs>
    <g id="Page-1" stroke="none" stroke-width="1" fill="none" fill-rule="evenodd" sketch:type="MSPage">
        <g id="communication" sketch:type="MSLayerGroup" transform="translate(1.000000, 1.000000)" stroke="#000000">
            <path d="M17.9669405,17.9524058 C17.9669405,17.7341571 15.9570044,15.8977843 16.0849112,14.4744652 C17.264619,12.95545 17.9669405,11.0477781 17.9669405,8.97620292 C17.9669405,4.01878294 13.9449039,0 8.98347027,0 C4.02203664,0 1.4033219e-13,4.01878294 1.4033219e-13,8.97620292 C1.4033219e-13,13.9336229 4.02203664,17.9524058 8.98347027,17.9524058 C10.5313438,17.9524058 11.9877838,17.5612488 13.2591834,16.8724658 C14.3735524,17.5933577 17.9669405,18.1965587 17.9669405,17.9524058 Z" id="Path-10" sketch:type="MSShapeGroup" transform="translate(9.000000, 9.000000) scale(-1, 1) translate(-9.000000, -9.000000) "></path>
            <path d="M13,12 C13,12 12,14 9,14 C6,14 5,12 5,12" id="Path-392" stroke-linecap="round" sketch:type="MSShapeGroup"></path>
            <path d="M7.5,5.5 L7.5,8.5" id="Line" stroke-linecap="round" sketch:type="MSShapeGroup"></path>
            <path d="M10.5,5.5 L10.5,8.5" id="Line-3" stroke-linecap="round" sketch:type="MSShapeGroup"></path>
        </g>
    </g>
</svg>