<?xml version="1.0" encoding="UTF-8" standalone="no"?>
<svg width="115px" height="60px" viewBox="0 0 115 60" version="1.1" xmlns="http://www.w3.org/2000/svg" xmlns:xlink="http://www.w3.org/1999/xlink" xmlns:sketch="http://www.bohemiancoding.com/sketch/ns">
    <!-- Generator: Sketch 3.1 (8751) - http://www.bohemiancoding.com/sketch -->
    <title>vl-ru-logotype</title>
    <desc>Created with Sketch.</desc>
    <defs></defs>
    <g id="Page-1" stroke="none" stroke-width="1" fill="none" fill-rule="evenodd" sketch:type="MSPage">
        <g id="vl-ru-logotype" sketch:type="MSLayerGroup">
            <path d="M112.069152,0.0577540107 C105.741208,0.0577540107 99.8464155,1.89304813 94.874482,5.04898396 C91.9304598,6.91764706 89.3106593,9.24802139 87.1214404,11.9441711 C84.4534404,9.95775401 81.3760665,8.49144385 78.0409861,7.68320856 C76.1297175,7.21989305 74.1352244,6.96834225 72.0812853,6.96834225 C71.237795,6.96834225 70.4042659,7.00973262 69.5819834,7.09090909 C72.5896288,7.38673797 75.4385374,8.21647059 78.0409861,9.47454545 C80.7150914,10.7675936 83.1247424,12.5168984 85.1690416,14.6239572 C86.2580277,15.7463102 87.2419391,16.9697326 88.1076011,18.2785027 C88.7158781,17.0120856 89.4025596,15.7909091 90.1657175,14.6233155 C92.529097,11.006631 95.6000443,7.89368984 99.1883324,5.48695187 C103.649352,2.49465241 108.902127,0.589090909 114.568133,0.153368984 C113.743601,0.0901604278 112.910072,0.0577540107 112.069152,0.0577540107" id="bull" fill="#0F9AEF" sketch:type="MSShapeGroup"></path>
            <path d="M74.0345706,28 L74.0345706,56.24704 L71.5345706,56.24704 C70.2017581,56.24704 69.1155081,55.17792 69.0417581,53.83168 L69.0345706,28 L64.0345706,28 L64.0345706,52.32 C64.0345706,56.56128 67.3926956,60 71.5345706,60 L79.0345706,60 L79.0345706,51.0544 L79.0345706,28 L74.0345706,28 Z" id="U" fill="#F97D41" sketch:type="MSShapeGroup"></path>
            <path d="M59,35.68 C59,31.4384 55.6421875,28 51.5,28 L44,28 L44,60 L49,60 L49,51.3144531 L49,46 L51.5,46 C52.833125,46 53.919353,47.0740934 53.993103,48.4200134 L54,60 L59,60 L59,49.48 C59,47.15104 57.98625,45.0656 56.3875,43.65728 C57.98625,42.24864 59,40.16352 59,37.83456 L59,35.68 Z M53.5066482,41.1498396 C53.0368643,41.6914439 52.3453629,42.0354011 51.5706371,42.0354011 L49,42.0354011 L49,32 L51.5706371,32 C52.365928,32 53.0728532,32.362246 53.5429584,32.928877 C53.5914792,32.9875936 53.6355014,33.0456684 53.6772742,33.1059893 C54.2704488,33.9334759 54.6647202,35.3757219 54.6647202,37.0204278 C54.6647202,38.7257754 54.2408864,40.2122995 53.6110803,41.0224599 C53.5972632,41.0404278 53.527856,41.1260963 53.5066482,41.1498396 Z" id="R" fill="#F97D41" sketch:type="MSShapeGroup"></path>
            <path d="M36,55 L41,55 L41,60 L36,60 L36,55 Z" id="point" fill="#F97D41" sketch:type="MSShapeGroup"></path>
            <path d="M26,28 L21,28 L21,60 L33,60 L33,55 L26,55 L26,28 Z" id="L" fill="#F97D41" sketch:type="MSShapeGroup"></path>
            <path d="M8.81760665,46.8352 L5.14127424,28 L0,28 L6.24600554,60 L11.3892078,60 L17.6352133,28 L12.4939391,28 L8.81760665,46.8352 Z" id="V" fill="#F97D41" sketch:type="MSShapeGroup"></path>
        </g>
    </g>
</svg>