<?xml version="1.0" encoding="UTF-8" standalone="no"?>
<svg width="18px" height="18px" viewBox="0 0 18 18" version="1.1" xmlns="http://www.w3.org/2000/svg" xmlns:xlink="http://www.w3.org/1999/xlink" xmlns:sketch="http://www.bohemiancoding.com/sketch/ns">
    <!-- Generator: Sketch 3.1 (8751) - http://www.bohemiancoding.com/sketch -->
    <title>phone</title>
    <desc>Created with Sketch.</desc>
    <defs></defs>
    <g id="Page-1" stroke="none" stroke-width="1" fill="none" fill-rule="evenodd" sketch:type="MSPage">
        <path d="M1,5 C1.26778953,6.14493678 3.40610814,9.21517514 6,12 C8.78436065,14.5935214 11.8548153,16.7322144 13,17 C14.1531714,17.093772 14.9615532,16.8137183 16,16 C16.0598976,15.9760189 16.9522097,15.3270226 17,15 C17.0135473,14.353326 16.9079009,14.101598 17,14 L14,12 C13.2560036,11.3234518 12.1042459,11.8721615 12,12 L11,13 C10.0998314,11.9112105 9.01598682,11.0023932 8,10 C6.9971737,8.98351121 6.08901296,7.90032216 5,7 L6,6 C6.12806131,5.89590649 6.67679515,4.74412873 6,4 L4,1 C3.89862989,1.09213403 3.64687257,0.986452115 3,1 C2.67315917,1.04772335 2.02410682,1.94001727 2,2 C1.18645567,3.03834709 0.906238241,3.84657432 1,5 Z" id="phone" stroke="#000000" sketch:type="MSShapeGroup"></path>
    </g>
</svg>