<?xml version="1.0" encoding="UTF-8" standalone="no"?>
<svg width="15px" height="20px" viewBox="0 0 15 20" version="1.1" xmlns="http://www.w3.org/2000/svg" xmlns:xlink="http://www.w3.org/1999/xlink" xmlns:sketch="http://www.bohemiancoding.com/sketch/ns">
    <!-- Generator: Sketch 3.1 (8751) - http://www.bohemiancoding.com/sketch -->
    <title>bus</title>
    <desc>Created with Sketch.</desc>
    <defs></defs>
    <g id="Page-1" stroke="none" stroke-width="1" fill="none" fill-rule="evenodd" sketch:type="MSPage">
        <g id="bus" sketch:type="MSLayerGroup" transform="translate(0.000000, 1.000000)" stroke="#000000">
            <path d="M2.50585866,2.5 C1.39805351,2.5 0.5,3.39706013 0.5,4.50585866 L0.5,14.4941413 C0.5,15.6019465 1.39706013,16.5 2.50585866,16.5 L12.4941413,16.5 C13.6019465,16.5 14.5,15.6029399 14.5,14.4941413 L14.5,4.50585866 C14.5,3.39805351 13.6029399,2.5 12.4941413,2.5 L2.50585866,2.5 Z" id="Rectangle-172" sketch:type="MSShapeGroup"></path>
            <path d="M3.49539757,4.5 C2.94565467,4.5 2.5,4.94335318 2.5,5.5093689 L2.5,7.4906311 C2.5,8.04809015 2.9556644,8.5 3.49539757,8.5 L11.5046024,8.5 C12.0543453,8.5 12.5,8.05664682 12.5,7.4906311 L12.5,5.5093689 C12.5,4.95190985 12.0443356,4.5 11.5046024,4.5 L3.49539757,4.5 Z" id="Rectangle-173" sketch:type="MSShapeGroup"></path>
            <circle id="Oval-122" sketch:type="MSShapeGroup" cx="4.5" cy="12.5" r="1.5"></circle>
            <circle id="Oval-123" sketch:type="MSShapeGroup" cx="10.5" cy="12.5" r="1.5"></circle>
            <circle id="Oval-124" fill="#FFFFFF" sketch:type="MSShapeGroup" cx="7.5" cy="1.5" r="1.5"></circle>
            <path d="M0.5,16.5 L2.5,18.5" id="Line-3" stroke-linecap="square" sketch:type="MSShapeGroup" transform="translate(2.000000, 18.000000) scale(-1, 1) translate(-2.000000, -18.000000) "></path>
            <path d="M11.5,16.5 L13.5,18.5" id="Line-4" stroke-linecap="square" sketch:type="MSShapeGroup"></path>
        </g>
    </g>
</svg>